<svg xmlns="http://www.w3.org/2000/svg" xmlns:xlink="http://www.w3.org/1999/xlink" width="816" height="632" viewBox="0 0 816 632"><defs><style>.a,.d,.e{fill:#191919;}.b,.i{fill:none;}.c{fill:#fff;}.d,.q{font-size:16px;}.d,.e{font-family:Imago-Book, Imago;}.e{font-size:14px;}.f,.k{font-family:Imago-Medium, Imago;}.f,.k,.q{font-weight:500;}.g{clip-path:url(#c);}.h{clip-path:url(#d);}.i{stroke:#000;stroke-linecap:round;stroke-width:0.009px;}.j{fill:#030000;}.k,.q{fill:#06c;}.k,.m{font-size:22px;}.l{font-size:12.833px;}.m{fill:#00a3ad;font-family:Minion-Italic, Minion;font-style:italic;}.n,.o{fill:#00834b;}.o{fill-rule:evenodd;}.p{fill:#0066b7;}.q{font-family:Roboto-Medium, Roboto;}.r{filter:url(#a);}</style><filter id="a" x="0" y="0" width="816" height="632" filterUnits="userSpaceOnUse"><feOffset input="SourceAlpha"/><feGaussianBlur stdDeviation="12" result="b"/><feFlood flood-opacity="0.349"/><feComposite operator="in" in2="b"/><feComposite in="SourceGraphic"/></filter><clipPath id="c"><path class="a" d="M0-13.252H48V-50H0Z" transform="translate(0 50)"/></clipPath><clipPath id="d"><path class="b" d="M0-19.938H48v-48H0Z" transform="translate(0 67.938)"/></clipPath></defs><g transform="translate(-276 -154)"><g class="r" transform="matrix(1, 0, 0, 1, 276, 154)"><rect class="c" width="744" height="560" rx="4" transform="translate(36 36)"/></g><text class="d" transform="translate(360 309)"><tspan x="0" y="16">Software version: 1.00.00.build#</tspan><tspan x="0" y="50">This software enables the display of laboratory </tspan><tspan x="0" y="72">workflow events within widgets in near real-</tspan><tspan x="0" y="94">time.</tspan><tspan x="0" y="128">Warning: All rights reserved. Copyright law </tspan><tspan x="0" y="150">and international treaties protect this </tspan><tspan x="0" y="172">computer program.</tspan><tspan x="0" y="206">Unauthorised reproduction or distribution of </tspan><tspan x="0" y="228">this program or any portion of it is strictly </tspan><tspan x="0" y="250">prohibited. Portions of the software might </tspan><tspan x="0" y="272">include open source and commercial </tspan><tspan x="0" y="294">software.</tspan></text><g transform="translate(-112)"><text class="e" transform="translate(832 309)"><tspan x="49.024" y="14">Roche Diagnostics GmbH</tspan><tspan x="68.442" y="32">Sandhofer Strasse 116</tspan><tspan x="97.898" y="50">68305 Mannheim</tspan><tspan x="147.206" y="68">Germany</tspan><tspan x="200" y="86"></tspan><tspan x="200" y="104"></tspan><tspan x="70.178" y="122">Distributed in USA by:</tspan><tspan x="90.17" y="140">Roche Diagnostics </tspan><tspan x="95.56" y="158">9115 Hague Road </tspan><tspan x="79.138" y="176">Indianapolis, Indiana</tspan><tspan x="174.03" y="194">USA</tspan><tspan x="200" y="212"></tspan><tspan x="200" y="230"></tspan><tspan class="f"><tspan x="110.218" y="248">08923370001</tspan></tspan></text><g transform="translate(1072 378)"><g transform="translate(0 -69)"><path class="a" d="M-12.68,0V22.2l-5.209-8.632L-24.34,24.267l-6.455-10.694L-37.318,24.4l-6.526-10.825-6.737,11.171V44.959h48V0Z" transform="translate(50.582)"/></g></g><g transform="translate(187 95)"><path class="a" d="M0-9.522H48V-40H0ZM0-40m2.643,2.64H45.358v25.2H2.643Z" transform="translate(885 479)"/><g transform="translate(890.75 446.833)"><g transform="translate(15.365 0)"><path class="a" d="M-3.135-4.78H-13.17v-15.3h9.45V-17.7H-9.267V-13.9H-4.2v2.383H-9.267v4.355h6.132Z" transform="translate(13.17 20.081)"/></g><g transform="translate(28.021 0)"><path class="a" d="M-1.233-4.78H-5.182v-15.3H4.164V-17.7h-5.4v4.268H3.772v2.386H-1.233Z" transform="translate(5.182 20.081)"/></g><path class="a" d="M-3.764-3.839c.431,2.08.564,2.447,1.081,3.014H-6.757C-7.275-1.3-7.3-1.391-7.75-3.513l-.133-.672a5.229,5.229,0,0,0-.822-2.3,2.5,2.5,0,0,0-2.125-.78h-1.127V-.825h-3.857v-15.3h7a6.321,6.321,0,0,1,3.556.714A3.7,3.7,0,0,1-3.764-12.2,3.458,3.458,0,0,1-6.931-8.369c1.974.391,2.45,1.386,2.946,3.663Zm-8.193-5.439h1.169a3.993,3.993,0,0,0,2.342-.456,2.457,2.457,0,0,0,.781-2.037,2.809,2.809,0,0,0-.2-1.15c-.5-1.147-1.515-1.147-2.751-1.168h-1.344Z" transform="translate(15.815 16.126)"/></g></g><g transform="translate(1072 632)"><g class="g" transform="translate(0 -50)"><g transform="translate(0 0)"><path class="a" d="M-16.788-1.079a13.221,13.221,0,0,1-4.576.952,15.3,15.3,0,0,1-6.444-1.754c-3.131-1.443-5.4-2.186-7.61-2.19a10.847,10.847,0,0,0-3.922.784,10.857,10.857,0,0,0-3.923-.784c-2.213,0-4.48.747-7.61,2.19A15.311,15.311,0,0,1-57.319-.127a13.244,13.244,0,0,1-4.575-.953L-63.341-1.6v32.94l.714.258a15.364,15.364,0,0,0,5.308,1.079,17.423,17.423,0,0,0,7.35-1.953c3.037-1.405,5.012-2,6.7-1.991a9.015,9.015,0,0,1,3.515.786l.409.166.409-.166a9.024,9.024,0,0,1,3.513-.786c1.693-.005,3.667.586,6.7,1.991a17.413,17.413,0,0,0,7.351,1.952A15.393,15.393,0,0,0-16.056,31.6l.715-.258V-1.6Zm-34.086,29.84a15.3,15.3,0,0,1-6.445,1.754,12.139,12.139,0,0,1-3.861-.7V1.431a13.536,13.536,0,0,0,3.861.6A17.417,17.417,0,0,0-49.968.081c3.036-1.405,5.011-1.995,6.7-1.991a8.381,8.381,0,0,1,2.843.531V26.993a10.074,10.074,0,0,0-2.843-.423c-2.213,0-4.479.747-7.61,2.19M-17.5,29.809a12.148,12.148,0,0,1-3.861.706,15.31,15.31,0,0,1-6.445-1.754c-3.132-1.443-5.4-2.186-7.61-2.19h-.009a10.052,10.052,0,0,0-2.833.423V-1.379a8.37,8.37,0,0,1,2.841-.531c1.693,0,3.668.586,6.705,1.991a17.393,17.393,0,0,0,7.35,1.953,13.514,13.514,0,0,0,3.861-.6Z" transform="translate(63.341 4.072)"/></g><g transform="translate(32.071 8.026)"><path class="a" d="M0-7.445V-8.612a7.715,7.715,0,0,0,2.012-.2q.27-.142.347-.8a38.121,38.121,0,0,0,.123-3.961q0-1.325-.046-2.45L2.39-17.688A1.652,1.652,0,0,0,2.2-18.706a1.8,1.8,0,0,0-1.041-.221L0-18.97v-1.1A20.46,20.46,0,0,0,6.121-21.29L6.507-21q-.232,2.724-.232,7.929a33.414,33.414,0,0,0,.107,3.637.8.8,0,0,0,.283.57,8.708,8.708,0,0,0,2.015.256v1.167q-2.781-.086-4.3-.085-.815,0-4.379.085M4.287-28.091a2.4,2.4,0,0,1,1.688.648,2.061,2.061,0,0,1,.7,1.572,2.046,2.046,0,0,1-.7,1.558,2.422,2.422,0,0,1-1.7.647,2.4,2.4,0,0,1-1.688-.647,2.044,2.044,0,0,1-.7-1.558,2.058,2.058,0,0,1,.7-1.572,2.419,2.419,0,0,1,1.7-.648" transform="translate(0 28.091)"/></g></g></g><g transform="translate(984 643.876)"><g class="h" transform="translate(0 -67.938)"><g transform="translate(-0.354 -0.707)"><path class="i" d="M0,0H49.6V49.6H0Z"/></g><g transform="translate(1.693 2.935)"><path class="a" d="M-17.4-15.571a1.7,1.7,0,0,1-.873.189l-36.677.008A1.446,1.446,0,0,1-56.4-16.821v-.035a1.368,1.368,0,0,1,.228-.745l.024-.036,18.354-31.8a1.444,1.444,0,0,1,1.253-.723,1.427,1.427,0,0,1,.721.2,1.374,1.374,0,0,1,.562.59l.02.037,18.365,31.8a1.429,1.429,0,0,1,.194.721,1.442,1.442,0,0,1-.724,1.255m3.036-3.422L-32.691-50.721a4.292,4.292,0,0,0-1.679-1.754,4.325,4.325,0,0,0-2.168-.582,4.337,4.337,0,0,0-3.759,2.17L-58.6-19.161a4.275,4.275,0,0,0-.685,2.339h0a4.339,4.339,0,0,0,4.339,4.339h0l36.676-.008a4.569,4.569,0,0,0,2.321-.577,4.34,4.34,0,0,0,2.17-3.76,4.32,4.32,0,0,0-.581-2.167" transform="translate(59.29 53.057)"/></g><g transform="translate(23 13.393)"><path d="M-.6,0A1.447,1.447,0,0,0-2.048,1.446V15.019A1.447,1.447,0,0,0-.6,16.466,1.447,1.447,0,0,0,.846,15.019V1.446A1.447,1.447,0,0,0-.6,0" transform="translate(2.048)"/></g><g transform="translate(23 33.904)"><path d="M-.6,0A1.455,1.455,0,0,0-1.624.423a1.456,1.456,0,0,0-.424,1.024A1.457,1.457,0,0,0-1.624,2.47,1.457,1.457,0,0,0-.6,2.893,1.459,1.459,0,0,0,.422,2.47,1.459,1.459,0,0,0,.845,1.447,1.458,1.458,0,0,0,.422.423,1.458,1.458,0,0,0-.6,0" transform="translate(2.048)"/></g></g></g><g transform="translate(1064.914 363.14)"><path class="j" d="M55.086,53.86h-48v19.2h48ZM8.625,55.4H30.317V71.521H8.625ZM53.547,71.521H31.856V55.4H53.547Z" transform="translate(0)"/><path class="j" d="M33.194,79.421h1.873v-.889H33.194V77.14h2.057v-.881h-3.49v5.651h3.706V81.03H33.194Z" transform="translate(-17.078 -15.503)"/><path class="j" d="M48.872,79.717C48.824,80.766,48.352,81,47.9,81c-.608,0-1.033-.32-1.033-2.057,0-1.817.376-2.345,1.089-2.345.584,0,.9.368.9,1.224v.064h1.417v-.1c0-1.529-1.017-1.945-2.289-1.945-2.377,0-2.618,1.593-2.618,3.034,0,1.777.393,2.873,2.41,2.873,2.546,0,2.562-1.713,2.578-2.033Z" transform="translate(-26.489 -15.215)"/><path class="j" d="M102.636,81.91V79.525h.352a1.179,1.179,0,0,1,.7.168c.248.192.336.408.449.969l.056.28c.1.472.168.833.361.969h1.5a2.04,2.04,0,0,1-.384-1.041l-.08-.392a2.378,2.378,0,0,0-.392-.993,1.117,1.117,0,0,0-.7-.36,1.28,1.28,0,0,0,1.169-1.409c0-1.009-.576-1.457-1.625-1.457h-2.826V81.91Zm0-4.9h.56c.56,0,1.025.088,1.025.856,0,.657-.312.921-.977.921h-.608Z" transform="translate(-65.146 -15.503)"/><path class="j" d="M122.909,81.03h-2.273V79.421h1.873v-.889h-1.873V77.14h2.057v-.881H119.2v5.651h3.706Z" transform="translate(-77.599 -15.503)"/><path class="j" d="M135.4,79.861h.969c1.241,0,1.961-.481,1.961-1.809,0-1.657-.9-1.793-1.985-1.793h-2.4V81.91H135.4Zm0-2.849h.593c.672,0,.9.344.9,1.008,0,.9-.328,1.089-1.017,1.089h-.48Z" transform="translate(-87.802 -15.503)"/></g></g><text class="k" transform="translate(360 250)"><tspan x="0" y="0">cobas</tspan><tspan class="l" y="0">®</tspan><tspan y="0" xml:space="preserve"> infinity production monitoring</tspan></text><text class="m" transform="translate(360 280)"><tspan x="0" y="0">About</tspan></text><g transform="translate(353.028 661)"><g transform="translate(6.972 11.66)"><path class="n" d="M46.914,24.412c0,2.495-1.672,4.42-3.939,4.42a4.951,4.951,0,0,1-1.672-.255V20.9a4.582,4.582,0,0,1,1.9-.424,3.706,3.706,0,0,1,3.712,3.936Zm3.4-.281a6.134,6.134,0,0,0-6.4-6.518,9.129,9.129,0,0,0-2.608.4V11.268H37.9V30.647a9.064,9.064,0,0,0,4.422.962c4.335,0,7.99-2.777,7.99-7.479Z" transform="translate(-5.652 -11.268)"/><path class="n" d="M58.557,27.854a3.526,3.526,0,0,1-2.407.851c-1.419,0-2.181-.765-2.181-1.871,0-1.132.822-1.755,2.663-1.812l1.926-.057v2.889Zm3.713,3.26a13.336,13.336,0,0,1-.257-3.541v-5.3c0-3.513-2.011-4.875-5.325-4.875a8.832,8.832,0,0,0-5.242,1.475L52.552,21a6.571,6.571,0,0,1,3.455-.991c1.418,0,2.55.651,2.55,2.267v.34l-2.379.084c-3.428.114-5.609,1.614-5.609,4.392A4.171,4.171,0,0,0,54.96,31.4a5.56,5.56,0,0,0,3.882-1.473l.566,1.19Z" transform="translate(-5.211 -11.055)"/><path class="n" d="M67.88,31.4a9.3,9.3,0,0,1-4.96-1.246l1.106-2.494a6.52,6.52,0,0,0,3.6,1.19c1.389,0,2.3-.512,2.3-1.418,0-2.407-6.177-1.5-6.177-6.061,0-2.324,1.841-3.969,5.072-3.969a10.141,10.141,0,0,1,3.937.681v2.833a10.211,10.211,0,0,0-3.8-.878c-1.19,0-1.9.367-1.9,1.16,0,2.127,6.292,1.419,6.292,6.036,0,3-2.636,4.164-5.468,4.164Z" transform="translate(-4.781 -11.055)"/><path class="n" d="M27.292,20.535a3.744,3.744,0,0,1,3.744,3.9,3.747,3.747,0,1,1-7.487,0,3.744,3.744,0,0,1,3.743-3.9Zm-.007,11.209a7.306,7.306,0,1,0-7.277-7.277,7.236,7.236,0,0,0,7.277,7.277Z" transform="translate(-6.275 -11.064)"/><path class="n" d="M36.917,24.372c0-2.382-1.568-4.5-3.992-5.836a8.454,8.454,0,0,1,2.288,5.818,8.336,8.336,0,0,1-2.45,5.943c2.518-1.332,4.155-3.489,4.155-5.924Z" transform="translate(-5.831 -11.015)"/><path class="n" d="M19.012,24.355A8.458,8.458,0,0,1,21.331,18.5c-2.458,1.337-4.051,3.469-4.051,5.872,0,2.455,1.664,4.627,4.216,5.955a8.332,8.332,0,0,1-2.484-5.974Z" transform="translate(-6.37 -11.016)"/><path class="n" d="M14.046,28.65c-2.663,0-3.908-2.042-3.908-4.337a3.99,3.99,0,0,1,3.937-4.306,5.317,5.317,0,0,1,2.849.751l.719-2.437a7.848,7.848,0,0,0-3.964-.922,6.814,6.814,0,0,0-6.942,7.084c0,3.768,2.238,6.913,6.6,6.913a8.929,8.929,0,0,0,4.733-1.445l-.851-2.239a6.057,6.057,0,0,1-3.174.938Z" transform="translate(-6.737 -11.055)"/><path class="o" d="M78.44,14.4a2.015,2.015,0,0,0-2.064-2.057A1.982,1.982,0,0,0,74.327,14.4a1.974,1.974,0,0,0,2.04,2.055A2.028,2.028,0,0,0,78.44,14.4Zm-.537,0a1.544,1.544,0,1,1-3.084,0,1.544,1.544,0,1,1,3.084,0Zm-.589,1.12a3.805,3.805,0,0,0-.71-1.043v-.008a.671.671,0,0,0,.509-.617c0-.355-.273-.624-.782-.624h-.712v2.292h.466V14.6h.079c.1,0,.274.355.606.921Zm-.692-1.624c0,.235-.195.336-.433.336h-.1V13.6h.122c.273,0,.415.079.415.3Z" transform="translate(-4.384 -11.231)"/></g></g><g transform="translate(933.94 664)"><path class="p" d="M1003.776,125.434a3.565,3.565,0,0,0-4.009,0V120.5H997.3v16.189h2.467v-8.48a1.26,1.26,0,0,1,1.388-1.233,1.4,1.4,0,0,1,1.233.617,3.05,3.05,0,0,1,.308,1.7v7.4h2.467v-7.555c0-2-.154-2.775-1.388-3.7" transform="translate(-953.527 -110.384)"/><path class="p" d="M990.442,129.413v2.158c-.154.925-.462,1.85-1.542,1.85s-1.388-.925-1.542-1.85V127.1c0-.925.462-1.85,1.542-1.85a1.574,1.574,0,0,1,1.542,1.7v2.467m2.467-1.85c-.308-3.392-2.313-4.163-3.854-4.163-2.313,0-3.7,1.388-3.854,4.163v3.7c.154,2.621,1.7,4.163,3.854,4.163,2.313,0,3.7-1.542,3.854-4.163v-3.7Z" transform="translate(-960.011 -108.826)"/><path class="p" d="M1005.967,127.971V127.2a1.5,1.5,0,0,1,1.542-1.7c1.233,0,1.388,1.079,1.542,1.85v.771h-3.084m2.929,3.084v.463c0,.617-.308,1.85-1.542,1.85-1.079,0-1.388-.925-1.542-1.85V130.13h5.4v-2.467a4.867,4.867,0,0,0-1.079-2.929,3.611,3.611,0,0,0-2.775-1.233c-2.159,0-3.546,1.388-3.854,4.163v3.7c.154,2.467,1.7,4.163,3.854,4.163s3.7-1.542,3.854-4.317H1008.9Z" transform="translate(-950.204 -108.773)"/><path class="p" d="M1025.8,115.437l15.212,17.823L1025.8,150.776h-39.8L970.8,133.106l15.212-17.67h39.8Zm.461-1.536H985.394L968.8,133.106l16.594,19.206h40.871l16.594-19.053Z" transform="translate(-968.8 -113.9)"/><path class="p" d="M981.167,122.758H982.4c1.233,0,2,.617,2,1.85v.617a1.791,1.791,0,0,1-1.85,2h-1.233v-4.471m5.7,12.951-.308-4.009c-.154-1.7-.617-2.775-1.542-3.392a3.9,3.9,0,0,0,1.542-3.392c0-3.084-2-4.163-4.317-4.317h-3.7v16.034h2.467v-7.246h1.388c.771,0,1.7.617,1.85,2.621l.308,3.7a3.362,3.362,0,0,0,.154.925h2.467C987.18,136.789,987.026,136.326,987.026,135.709Z" transform="translate(-963.495 -110.331)"/><path class="p" d="M996.642,131.217v.463c0,.925-.308,1.85-1.542,1.85-1.079,0-1.388-1.079-1.542-1.85v-4.471c.154-.925.463-1.7,1.542-1.85a1.574,1.574,0,0,1,1.542,1.7v.617h2.467v-.308c-.308-3.392-2.313-4.163-3.854-4.163-2.313,0-3.7,1.388-3.854,4.163v3.7c.154,2.621,1.7,4.163,3.854,4.163,2.313,0,3.7-1.388,3.854-4.163v-.308h-2.467" transform="translate(-956.689 -108.933)"/></g><text class="q" transform="translate(988 243)"><tspan x="-20.242" y="0">Close</tspan></text></g></svg>