<svg xmlns="http://www.w3.org/2000/svg" width="1368" height="720" viewBox="0 0 1368 720"><defs><style>.a{fill:#333;font-size:48px;font-family:Roboto-Regular, Roboto;}.b{opacity:0.6;}.c,.j{fill:#dde3e9;}.c,.d,.m,.q,.r,.s,.v,.w,.x,.y{fill-rule:evenodd;}.d{fill:#c6d0db;}.e{fill:#f2f7fc;}.ab,.f{fill:#fff;}.g{fill:#d2e9ff;}.h,.m{fill:#a5d2ff;}.i,.s{fill:#e9f4ff;}.k{fill:#f2f2f2;}.l,.q{fill:#80b3e6;}.n{fill:#e0ecf9;}.o,.r{fill:#bfd9f2;}.p{fill:#afb9c5;}.t,.w{fill:#915b3c;}.u,.v{fill:#191847;}.x{fill:#c5cfd6;}.y{fill:#323337;}.ac,.z{fill:none;}.z{stroke:#c6d0db;stroke-linecap:round;stroke-width:5px;}.aa{fill:#c03;}.ab{font-size:12px;font-family:Roboto-Bold, Roboto;font-weight:700;letter-spacing:0.01em;}</style></defs><g transform="translate(0 -48)"><text class="a" transform="translate(684 704)"><tspan x="-175.746" y="0">License required</tspan></text><g transform="translate(350.173 64)"><g class="b" transform="translate(39 52)"><path class="c" d="M579.573,295.409c8.452,132.035-196.522,218.157-372.949,158.055S-50.738,158.654,33.45,33.593,571.121,163.374,579.573,295.409Z" transform="translate(0 0)"/></g><path class="d" d="M74.12,3.505c1.081,1.567-25.133,2.589-47.7,1.875S-6.489,1.883,4.278.4,73.039,1.939,74.12,3.505Z" transform="translate(497.377 455.419)"/><path class="d" d="M283.5,10.305c4.134,4.606-96.128,7.61-182.426,5.514S-24.818,5.535,16.362,1.172,279.361,5.7,283.5,10.305Z" transform="translate(230.574 427.015)"/><path class="d" d="M139.2,7.467c2.03,3.338-47.2,5.515-89.575,4S-12.186,4.011,8.034.849,137.173,4.13,139.2,7.467Z" transform="translate(183.519 370.247)"/><path class="d" d="M147.166,6.976c2.146,3.118-49.9,5.152-94.7,3.732S-12.883,3.747,8.494.793,145.02,3.858,147.166,6.976Z" transform="translate(117.348 343.807)"/><g transform="translate(125.711 73.021)"><rect class="e" width="139" height="265" rx="8" transform="translate(0.116 -0.021)"/><circle class="f" cx="13" cy="13" r="13" transform="translate(56.116 221.979)"/><g transform="translate(56.056 14.014)"><ellipse class="f" cx="1.5" cy="2" rx="1.5" ry="2" transform="translate(0.06 -0.035)"/><rect class="f" width="18" height="4" rx="2" transform="translate(8.06 -0.035)"/></g><g transform="translate(12.262 24.524)"><rect class="f" width="115" height="47" rx="4" transform="translate(-0.146 0.455)"/><g transform="translate(34.159 14.189)"><rect class="g" width="63.939" height="7.095" rx="3"/><rect class="g" width="42.918" height="7.095" rx="3" transform="translate(0 11.824)"/></g><circle class="h" cx="10.5" cy="10.5" r="10.5" transform="translate(7.854 13.455)"/><g transform="translate(0 54.304)"><rect class="f" width="115" height="37" rx="4" transform="translate(-0.146 0.151)"/><g transform="translate(34.159 11.036)"><rect class="g" width="63.939" height="5.518" rx="2.759"/><rect class="g" width="42.918" height="5.518" rx="2.759" transform="translate(0 9.197)"/></g><circle class="h" cx="10.5" cy="10.5" r="10.5" transform="translate(7.854 8.151)"/></g><g transform="translate(0 98.097)"><rect class="f" width="115" height="36" rx="4" transform="translate(-0.146 0.357)"/><g transform="translate(34.159 11.036)"><rect class="g" width="63.939" height="5.518" rx="2.759"/><rect class="g" width="42.918" height="5.518" rx="2.759" transform="translate(0 9.197)"/></g><circle class="h" cx="10.5" cy="10.5" r="10.5" transform="translate(7.854 8.357)"/></g><g transform="translate(0 141.891)"><rect class="f" width="115" height="37" rx="4" transform="translate(-0.146 -0.436)"/><g transform="translate(34.159 11.036)"><rect class="g" width="63.939" height="5.518" rx="2.759"/><rect class="g" width="42.918" height="5.518" rx="2.759" transform="translate(0 9.197)"/></g><circle class="h" cx="10.5" cy="10.5" r="10.5" transform="translate(7.854 7.564)"/></g></g></g><g transform="translate(183.519 95.794)"><rect class="i" width="139" height="264" rx="8" transform="translate(0.308 0.206)"/><ellipse class="f" cx="13" cy="13.5" rx="13" ry="13.5" transform="translate(56.308 221.207)"/><g transform="translate(56.056 14.014)"><circle class="e" cx="1.5" cy="1.5" r="1.5" transform="translate(0.253 0.193)"/><rect class="e" width="18" height="3" rx="1.5" transform="translate(8.253 0.193)"/></g><g transform="translate(12.262 24.524)"><rect class="f" width="115" height="48" rx="4" transform="translate(0.047 -0.318)"/><g transform="translate(7.883 14.189)"><rect class="g" width="63.939" height="7.095" rx="3"/><rect class="g" width="42.918" height="7.095" rx="3" transform="translate(0 11.824)"/></g><g transform="translate(96.346 17.517)"><ellipse class="j" cx="6.5" cy="6" rx="6.5" ry="6" transform="translate(-0.299 0.165)"/><ellipse class="k" cx="2.5" cy="3" rx="2.5" ry="3" transform="translate(3.701 3.165)"/></g><g transform="translate(0 54.304)"><rect class="f" width="115" height="36" rx="4" transform="translate(0.047 0.378)"/><g transform="translate(34.159 11.036)"><rect class="g" width="63.939" height="5.518" rx="2.759"/><rect class="g" width="42.918" height="5.518" rx="2.759" transform="translate(0 9.197)"/></g><circle class="h" cx="10.5" cy="10.5" r="10.5" transform="translate(8.047 8.378)"/></g><g transform="translate(0 98.097)"><rect class="f" width="115" height="37" rx="4" transform="translate(0.047 -0.415)"/><g transform="translate(7.883 11.036)"><rect class="g" width="63.939" height="5.518" rx="2.759"/><rect class="l" width="42.918" height="5.518" rx="2.759" transform="translate(0 9.197)"/></g><g transform="translate(96.346 12.262)"><ellipse class="j" cx="6.5" cy="6" rx="6.5" ry="6" transform="translate(-0.299 0.323)"/><circle class="k" cx="2.5" cy="2.5" r="2.5" transform="translate(3.701 3.323)"/></g></g><g transform="translate(0 141.891)"><rect class="f" width="115" height="37" rx="4" transform="translate(0.047 -0.209)"/><g transform="translate(34.159 11.036)"><rect class="g" width="63.939" height="5.518" rx="2.759"/><rect class="g" width="42.918" height="5.518" rx="2.759" transform="translate(0 9.197)"/></g><circle class="h" cx="10.5" cy="10.5" r="10.5" transform="translate(8.047 7.791)"/></g></g></g><g transform="translate(241.326 117.69)"><rect class="e" width="294" height="303" rx="8" transform="translate(-0.499 0.31)"/><g transform="translate(150.651 37.662)"><rect class="f" width="61" height="84" rx="8" transform="translate(-0.15 -0.353)"/><g transform="translate(8.759 13.138)"><ellipse class="h" cx="14" cy="14.5" rx="14" ry="14.5" transform="translate(8.091 -0.491)"/><rect class="g" width="44" height="5" rx="2.5" transform="translate(0.091 31.509)"/><rect class="g" width="30" height="5" rx="2.5" transform="translate(7.091 40.509)"/></g></g><g transform="translate(218.093 37.662)"><rect class="f" width="61" height="84" rx="8" transform="translate(0.409 -0.353)"/><g transform="translate(8.759 13.138)"><ellipse class="h" cx="14" cy="14.5" rx="14" ry="14.5" transform="translate(7.65 -0.491)"/><rect class="g" width="44" height="5" rx="2.5" transform="translate(-0.35 31.509)"/><rect class="g" width="30" height="5" rx="2.5" transform="translate(6.65 40.509)"/></g></g><g transform="translate(82.333 37.662)"><rect class="f" width="61" height="84" rx="8" transform="translate(0.169 -0.353)"/><g transform="translate(8.759 13.138)"><circle class="h" cx="14.5" cy="14.5" r="14.5" transform="translate(7.41 -0.491)"/><rect class="g" width="43" height="5" rx="2.5" transform="translate(0.41 31.509)"/><rect class="g" width="29" height="5" rx="2.5" transform="translate(7.41 40.509)"/></g></g><path class="m" d="M7.007,0h279.4a7.007,7.007,0,0,1,7.007,7.007V23.648H0V7.007A7.007,7.007,0,0,1,7.007,0Z" transform="translate(0 0)"/><g transform="translate(7.883 8.759)"><circle class="e" cx="3.5" cy="3.5" r="3.5" transform="translate(-0.382 -0.449)"/><circle class="e" cx="3.5" cy="3.5" r="3.5" transform="translate(10.618 -0.449)"/><circle class="e" cx="3.5" cy="3.5" r="3.5" transform="translate(20.618 -0.449)"/></g><g transform="translate(218.093 127.877)"><rect class="f" width="61" height="157" rx="8" transform="translate(0.409 0.433)"/><g transform="translate(15.766 15.766)"><rect class="n" width="30" height="23" rx="4" transform="translate(-0.357 -0.333)"/><rect class="o" width="30" height="22" rx="4" transform="translate(-0.357 26.667)"/><rect class="l" width="30" height="22" rx="4" transform="translate(-0.357 52.667)"/><rect class="o" width="30" height="21" rx="4" transform="translate(-0.357 104.667)"/><rect class="o" width="30" height="22" rx="4" transform="translate(-0.357 77.667)"/></g></g><g transform="translate(14.014 127.877)"><g transform="translate(0.001)"><rect class="f" width="197" height="75" rx="4" transform="translate(0.486 0.433)"/><g transform="translate(7.882 10.248)"><rect class="g" width="135.508" height="5.85" rx="2.925"/><rect class="g" width="112.096" height="5.85" rx="2.925" transform="translate(0 9.75)"/></g><g transform="translate(7.882 29.248)"><rect class="g" width="135.508" height="5.85" rx="2.925" transform="translate(0 0)"/><rect class="g" width="112.096" height="5.85" rx="2.925" transform="translate(0 9.75)"/></g><g transform="translate(7.882 48.248)"><rect class="g" width="135.508" height="5.85" rx="2.925" transform="translate(0 0)"/><rect class="g" width="112.096" height="5.85" rx="2.925" transform="translate(0 9.75)"/></g><g transform="translate(169.878 10.948)"><circle class="i" cx="6.131" cy="6.131" r="6.131"/><circle class="l" cx="2.628" cy="2.628" r="2.628" transform="translate(3.503 3.503)"/></g><g transform="translate(169.878 25.838)"><circle class="i" cx="6.131" cy="6.131" r="6.131"/><circle class="l" cx="2.628" cy="2.628" r="2.628" transform="translate(3.503 3.503)"/></g><g transform="translate(169.878 40.728)"><circle class="i" cx="6.131" cy="6.131" r="6.131"/><circle class="l" cx="2.628" cy="2.628" r="2.628" transform="translate(3.503 3.503)"/></g><g transform="translate(169.878 55.618)"><circle class="j" cx="6.131" cy="6.131" r="6.131"/><circle class="p" cx="2.628" cy="2.628" r="2.628" transform="translate(3.503 3.503)"/></g><g transform="translate(169.878 55.28)"><circle class="i" cx="6.131" cy="6.131" r="6.131"/><circle class="g" cx="2.628" cy="2.628" r="2.628" transform="translate(3.503 3.503)"/></g></g><g transform="translate(0 123.498)"><rect class="f" width="197" height="34" rx="4" transform="translate(0.487 -0.065)"/><g transform="translate(7.883 10.248)"><rect class="g" width="146.27" height="5.124" rx="2.562"/><rect class="g" width="98.181" height="5.124" rx="2.562" transform="translate(0 8.54)"/></g><g transform="translate(169.879 10.948)"><circle class="i" cx="6.131" cy="6.131" r="6.131"/><circle class="g" cx="2.628" cy="2.628" r="2.628" transform="translate(3.503 3.503)"/></g></g><g transform="translate(0 82.332)"><rect class="f" width="197" height="34" rx="4" transform="translate(0.487 0.101)"/><g transform="translate(7.883 10.248)"><rect class="g" width="146.27" height="5.124" rx="2.562"/><rect class="g" width="98.181" height="5.124" rx="2.562" transform="translate(0 8.54)"/></g><g transform="translate(169.879 10.948)"><circle class="i" cx="6.131" cy="6.131" r="6.131"/><circle class="g" cx="2.628" cy="2.628" r="2.628" transform="translate(3.503 3.503)"/></g></g></g><g transform="translate(14.014 38.538)"><rect class="f" width="61" height="83" rx="8" transform="translate(0.487 -0.229)"/><g transform="translate(10.51 8.759)"><path class="q" d="M25.445,24.966a7.072,7.072,0,1,1-5.168-11.871V0A20.273,20.273,0,0,0,0,20.145,20.273,20.273,0,0,0,20.277,40.29a20.034,20.034,0,0,0,14.758-6.378Z"/><path class="m" d="M23,0V13.094a7.051,7.051,0,0,1,7.051,7.051H43.145A20.207,20.207,0,0,0,23,0Z" transform="translate(-2.855)"/><path class="r" d="M30.691,23A6.989,6.989,0,0,1,28,28.512l8.055,10.254A19.978,19.978,0,0,0,43.766,23Z" transform="translate(-3.476 -2.855)"/></g><g transform="translate(7.883 54.041)"><rect class="g" width="42.765" height="5.124" rx="2.562" transform="translate(0 0)"/><rect class="g" width="28.706" height="5.124" rx="2.562" transform="translate(0 8.54)"/><rect class="g" width="42.765" height="5.124" rx="2.562" transform="translate(0 16.642)"/></g></g></g><g transform="translate(35.294 63)"><rect class="o" width="6" height="22" rx="3" transform="translate(-0.466 28)"/><rect class="o" width="5" height="36" rx="2.5" transform="translate(12.534 14)"/><rect class="o" width="5" height="43" rx="2.5" transform="translate(24.534 7)"/><rect class="o" width="6" height="36" rx="3" transform="translate(36.534 14)"/><rect class="l" width="5" height="50" rx="2.5" transform="translate(49.534)"/></g><g transform="translate(129.063 236.698) rotate(180)"><path class="s" d="M17.517,12.913A17.685,17.685,0,0,1,0,30.655V12.913L11.971,0A17.581,17.581,0,0,1,17.517,12.913Z" transform="translate(17.517 4.379)"/><path class="q" d="M17.69,17.517H0A17.529,17.529,0,0,1,4.814,5.546,17.83,17.83,0,0,1,17.69,0,18.082,18.082,0,0,1,29.78,4.767Z" transform="translate(0.291)"/><path class="m" d="M0,0A17.571,17.571,0,0,0,17.517,17.517V0ZM26.276,17.517,19.269,1.752,35.035,8.759A16.111,16.111,0,0,1,26.276,17.517Z" transform="translate(0 17.517)"/></g><g transform="translate(508.466 405.852)"><path class="q" d="M33.079,32.564a9.208,9.208,0,1,1-6.719-15.485V0a26.276,26.276,0,1,0,0,52.552,26,26,0,0,0,19.186-8.319Z"/><path class="m" d="M30,0V17.079a9.2,9.2,0,0,1,9.2,9.2H56.276A26.357,26.357,0,0,0,30,0Z" transform="translate(-3.724)"/><path class="r" d="M39.588,30A9.319,9.319,0,0,1,36,37.349L46.74,51.021A26.638,26.638,0,0,0,57.021,30Z" transform="translate(-4.469 -3.724)"/></g></g><path class="d" d="M.085,13.175C-2.742,3.378,65.8-3.012,124.793,1.447S210.852,23.322,182.7,32.6,2.911,22.971.085,13.175Z" transform="translate(888.113 582.906)"/><g transform="translate(898.431 302.418)"><g transform="translate(0 0)"><g transform="translate(0 0)"><g transform="translate(21.015 121.986)"><g transform="translate(0 1.624)"><path class="t" d="M1609.62,375.606l-.706,12.115,11.256-.851,2.218-12.708Z" transform="translate(-1583.317 -223.129)"/><path class="u" d="M1555.8,403.725c-.014.043,5.718,3,14.261,1.443.143,3.873.576,10.611.576,10.611l-1.239,1.853h-37.2s-1.3-3.783-.746-4.335C1532.5,412.419,1542.9,412.378,1555.8,403.725Z" transform="translate(-1531.317 -242.94)"/><path class="l" d="M1618.036-48.33s-17.927,45.567-15.287,144.352c.177.083,16.494,0,16.494,0l22.544-90.5-12.036-63.89Z" transform="translate(-1578.992 58.369)"/></g><g transform="translate(33.671 0)"><path class="t" d="M1785.228,379.352l4.021,9.112h12.1l-4.054-11.2Z" transform="translate(-1735.137 -223.583)"/><path class="u" d="M1555.8,403.725c-.014.043,5.718,3,14.261,1.443.143,3.873.576,10.611.576,10.611l-1.239,1.853h-37.2s-1.3-3.783-.746-4.335C1532.5,412.419,1542.9,412.378,1555.8,403.725Z" transform="translate(-1502.64 -241.315)"/><path class="h" d="M1642.2-65.336s-1.709,42.179,47.9,155.432c.3.156,17.668,0,17.668,0s-15.473-54.363-16.01-109.451c-.833-26.976,0-47.1,0-47.1Z" transform="translate(-1642.195 66.455)"/></g></g><g transform="translate(53.86)"><path class="v" d="M54.635,39.537c-2.363,8.706-5.442,28.276-2.3,31.346H72.213l.006-.106a14.739,14.739,0,0,0,13.1-14.646V41.737A14.737,14.737,0,0,0,70.58,27H69.209A14.74,14.74,0,0,0,54.635,39.537Z" transform="translate(-51 -27)"/><g transform="translate(3.472 2.742)"><path class="w" d="M23.125,23.64c3.158-3.707,5.3-8.251,4.939-13.342C27.034-4.37,6.615-1.143,2.643,6.261s-3.5,26.183,1.633,27.506c2.047.528,6.408-.765,10.847-3.44l-2.786,19.71h16.45Z" transform="translate(0 0)"/></g><path class="v" d="M52.49,51.219c-.758,8.141-.454,17.439,1.8,19.646H74.171c1.107-19.242-9.6-11.791-9.6-29.908-.667-.652-1.3-1.3-1.922-1.854l.022-.533Q57.513,28,49.576,28C41.638,28,39.133,31.693,37,34.829c1.6,5.473,7.785,6.285,13.286,9.7a3.77,3.77,0,1,1,2.376,6.7Q52.575,51.222,52.49,51.219Z" transform="translate(-30.34 -27.315)"/></g><g transform="translate(0 39.763)"><path class="w" d="M39.377,0,16.689,19.234A64.534,64.534,0,0,0,.888,26.9c-.963,1.009-2.072,2.993,2.168,2.367s8.729-1.094,9.419.319-1.768,3.333-.442,5.212q1.326,1.879,10.548-10.626l23-11.477Z" transform="matrix(0.978, -0.208, 0.208, 0.978, 0, 78.979)"/><path class="w" d="M214.565,77.536l-13.312,1.933q21.434,46.5,22.982,49.188c2.322,4.026-.409,11.038-1.476,14.751,5.4,1.558,3.672-6.778,10.494-4.7,6.227,1.9,11.365,6.2,17.532,1.084.758-.629,1.4-2.686-1.013-3.884-6-2.985-14.819-8.448-16.189-10.461Q230.78,121.33,214.565,77.536Z" transform="translate(-83.059 -19.204)"/><path class="x" d="M0,81.7l7.979,3.436c13.583-26.87,32.564-52.358,62.33-72.684L64.478,0C38.809,12.244,14.725,21.392,3.46,42.149-.32,49.115.5,73.017,0,81.7Z" transform="translate(94.636 82.953) rotate(167)"/><path class="y" d="M147.38,83.1q-35.443,3.758-55.8,0c-1.681-.31-1.946-3.125-1.167-5.035,12.14-29.745,20.464-55.7,20.464-76.36q3.341,1.684,11.695.5C137.545,23.5,144.425,47.928,147.38,83.1Z" transform="translate(-43.181 -0.367)"/><path class="c" d="M48.967.077c-1.452,8.542-6.033,124.21-20.174,162.047h76.516c-1.659-34.662-14.744-76.3-28-111.143Q94.89,67.07,107.957,105.5l14.332-3.679Q106.3,32.946,56.56.572l-.214-.5Z" transform="translate(27.913 -0.02)"/></g></g></g></g><line class="z" x2="70" transform="translate(1011.5 349.5)"/><line class="z" x2="70" transform="translate(1002.5 484.5)"/><line class="z" x2="70" transform="translate(1034.5 363.5)"/><line class="z" x2="70" transform="translate(1016.5 494.5)"/><line class="z" x2="28" transform="translate(1027.5 374.5)"/><g transform="translate(633 640)"><rect class="aa" width="102" height="22" rx="11"/><text class="ab" transform="translate(51 15)"><tspan x="-34.344" y="0">Trial expired</tspan></text></g><rect class="ac" width="1368" height="720" transform="translate(0 48)"/></g></svg>