<svg xmlns="http://www.w3.org/2000/svg" xmlns:xlink="http://www.w3.org/1999/xlink" width="313" height="413" viewBox="0 0 313 413">
  <defs>
    <style>
      .cls-1 {
        clip-path: url(#clip-Mesa_de_trabajo_1);
      }

      .cls-2 {
        opacity: 0.325;
      }

      .cls-3 {
        fill: #c6c6c6;
        fill-rule: evenodd;
      }

      .cls-4, .cls-7 {
        fill: none;
      }

      .cls-4 {
        stroke: #008f06;
        stroke-width: 4px;
      }

      .cls-5 {
        fill: #008f06;
      }

      .cls-6 {
        stroke: none;
      }
    </style>
    <clipPath id="clip-Mesa_de_trabajo_1">
      <rect width="313" height="413"/>
    </clipPath>
  </defs>
  <g id="Mesa_de_trabajo_1" data-name="Mesa de trabajo – 1" class="cls-1">
    <g id="Grupo_41288" data-name="Grupo 41288" transform="translate(-12007 -7257)">
      <g id="Grupo_40549" data-name="Grupo 40549" class="cls-2" transform="translate(12046.287 7412.896)">
        <path id="Trazado_30595" data-name="Trazado 30595" class="cls-3" d="M42.207-71H11.179l-1.141.112-1.027.112-1.141.336-1.027.336-1.027.447-.913.559-.8.671-.8.671-.8.783-.57.895-.57.895L.913-64.177.456-63.17.228-62.164,0-61.045V-16.3H0v1.23l.342,1.342L.684-12.5l.456,1.119.684,1.007.8,1.007.8.895,1.027.895V93.312h0v67.895h0v2.125l.342,2.013.57,2.125.684,2.013.913,1.79,1.141,1.79,1.141,1.566,1.483,1.454,1.483,1.342,1.711,1.23,1.825,1.119,1.825.895,1.939.671,2.053.559,2.167.224,2.167.112h0l2.4-.112,2.281-.336,2.167-.559,2.167-.783,1.939-.895,1.939-1.119,1.939-1.342,1.6-1.454L43.8,174.07l1.369-1.79,1.141-1.79.913-2.013.8-2.237.57-2.125.342-2.237.114-2.349V96.444h0V-7.579h0l1.027-.895.8-.895.8-1.007.57-1.007.57-1.119.342-1.23.228-1.342L53.5-16.3V-59.927h0l-.114-1.119-.114-1.119L52.93-63.17l-.342-1.007-.456-1.007-.57-.895-.684-.895-.684-.783-.8-.671-.913-.671-.913-.559-.913-.447-1.027-.336-1.141-.336-1.141-.112L42.207-71ZM11.293,93.2V-5.342H42.207V93.088Z"/>
        <path id="Trazado_30596" data-name="Trazado 30596" class="cls-3" d="M91.207-71H60.293l-1.255.112-1.027.112-1.141.336-1.027.336-.913.447-1.027.559-.8.671-.8.671-.8.783-.57.895-.57.895-.456,1.007-.456,1.007-.228,1.007L49-61.045V-16.3h0l.114,1.23.228,1.342.342,1.23.57,1.119.57,1.007.8,1.007.8.895,1.027.895v41.05h0V161.207h0l.114,2.125.228,2.013.57,2.125.684,2.013.913,1.79,1.141,1.79,1.255,1.566,1.369,1.454,1.483,1.342,1.6,1.23,1.939,1.119,1.825.895,2.053.671,2.053.559,2.053.224,2.167.112h0l2.4-.112,2.281-.336,2.167-.559,2.167-.783,1.939-.895,1.939-1.119,1.939-1.342,1.6-1.454L92.8,174.07l1.369-1.79,1.141-1.79.913-2.013.8-2.237.57-2.125.342-2.237.114-2.349V30.115h0V-7.579h0l1.027-.895.8-.895.8-1.007.57-1.007.57-1.119.342-1.23.228-1.342.114-1.23V-59.927h0l-.114-1.119-.114-1.119-.228-1.007-.456-1.007-.456-1.007-.57-.895-.684-.895-.684-.783-.8-.671-.913-.671-.913-.559-.913-.447-1.027-.336-1.141-.336-1.141-.112L91.207-71ZM60.293,30.115V-5.342H91.207V30.115Z" transform="translate(125.768)"/>
        <path id="Trazado_30597" data-name="Trazado 30597" class="cls-3" d="M64.31-71H35.518l-1.062.112-.956.112-1.062.336-.956.336-.85.447-.956.559-.744.671-.744.671-.744.783-.531.895-.531.895-.425,1.007-.531,1.007-.213,1.007L25-61.045V-16.3h0l.106,1.23.212,1.342.319,1.23.531,1.119.637,1.007.744,1.007.744.895.956.895v73.04h0v95.746h0l.106,2.125.212,2.013.531,2.125.637,2.013.85,1.79,1.062,1.79,1.062,1.566,1.381,1.454,1.381,1.342,1.487,1.23,1.7,1.119,1.7.895,1.806.671,1.912.559,2.019.224,2.019.112h0l2.337-.112,2.125-.336,2.019-.559,2.019-.783,1.806-.895,1.806-1.119,1.7-1.342,1.487-1.454L65.8,174.07l1.275-1.79,1.062-1.79.85-2.013.744-2.237.531-2.125.319-2.237.106-2.349V57.519h0v-65.1h0l.956-.895.744-.895.744-1.007.531-1.007L74.3-12.5l.319-1.23.212-1.342.106-1.23V-59.927h0l-.106-1.119-.106-1.119L74.4-63.17l-.425-1.007-.425-1.007-.531-.895-.637-.895-.637-.783L71-68.427l-.85-.671-.85-.559-.85-.447-.956-.336-1.062-.336-1.062-.112L64.31-71ZM35.624,57.519V-5.342H64.31V57.519Z" transform="translate(64.167)"/>
      </g>
      <g id="Grupo_40584" data-name="Grupo 40584" transform="translate(11952.881 7325.502)">
        <g id="Grupo_28539" data-name="Grupo 28539" transform="translate(161 96)">
          <g id="Grupo_28490" data-name="Grupo 28490" transform="translate(0 0)">
            <g id="Rectángulo_6956" data-name="Rectángulo 6956" class="cls-4">
              <rect class="cls-6" width="93.341" height="93.341" rx="46.671"/>
              <rect class="cls-7" x="-2" y="-2" width="97.341" height="97.341" rx="48.671"/>
            </g>
          </g>
        </g>
        <g id="group-21" transform="translate(181.452 115.498)">
          <path id="path" class="cls-5" d="M21.063,52.434.719,36.173a1.777,1.777,0,0,1-.236-2.611h0a2.018,2.018,0,0,1,2.755-.224h0L21.653,48.07l24.2-47.03a1.983,1.983,0,0,1,2.6-.858h0a1.792,1.792,0,0,1,.905,2.462h0L24.093,51.8a1.9,1.9,0,0,1-1.338,1.007h0a1.41,1.41,0,0,1-.393.037h0a2.138,2.138,0,0,1-1.3-.41Z" transform="translate(-0.018 0.006)"/>
        </g>
      </g>
    </g>
  </g>
</svg>
