<svg xmlns="http://www.w3.org/2000/svg" xmlns:xlink="http://www.w3.org/1999/xlink" width="18" height="18" viewBox="0 0 18 18"><defs><style>.a{fill:none;}.b{clip-path:url(#a);}.c,.f{fill:#fff;}.d,.g{fill:#00875a;}.d{stroke-linecap:round;stroke-linejoin:round;}.e,.f,.g{stroke:none;}</style><clipPath id="a"><rect class="a" width="18" height="18"/></clipPath></defs><g class="b"><g class="c"><path class="e" d="M 9 17.5 C 4.313079833984375 17.5 0.5 13.68692016601562 0.5 9 C 0.5 4.313079833984375 4.313079833984375 0.5 9 0.5 C 13.68692016601562 0.5 17.5 4.313079833984375 17.5 9 C 17.5 13.68692016601562 13.68692016601562 17.5 9 17.5 Z"/><path class="f" d="M 9 1 C 4.588789939880371 1 1 4.588789939880371 1 9 C 1 13.41121006011963 4.588789939880371 17 9 17 C 13.41121006011963 17 17 13.41121006011963 17 9 C 17 4.588789939880371 13.41121006011963 1 9 1 M 9 0 C 13.97056007385254 0 18 4.029439926147461 18 9 C 18 13.97056007385254 13.97056007385254 18 9 18 C 4.029439926147461 18 0 13.97056007385254 0 9 C 0 4.029439926147461 4.029439926147461 0 9 0 Z"/></g><g transform="translate(2 2)"><path class="a" d="M0,0H14V14H0Z"/><g class="d" transform="translate(-1.314 -2.154)"><path class="e" d="M 6.607009410858154 12.73124027252197 L 3.768442869186401 9.95881175994873 L 4.22150182723999 9.519426345825195 L 6.432329654693604 11.67874050140381 L 6.606929779052734 11.84926986694336 L 6.781609535217285 11.67881965637207 L 12.66351795196533 5.939380168914795 L 13.11220264434814 6.377610206604004 L 6.607009410858154 12.73124027252197 Z"/><path class="g" d="M 6.607009410858154 12.38177967071533 L 12.7544059753418 6.377610206604004 L 12.66343212127686 6.288755893707275 L 6.956199645996094 11.85774993896484 C 6.859078407287598 11.95251655578613 6.73305082321167 11.99988842010498 6.607005596160889 11.99988842010498 C 6.480898380279541 11.99988842010498 6.35477352142334 11.95244789123535 6.257649421691895 11.85758972167969 L 4.220889091491699 9.868288040161133 L 4.126891613006592 9.95944881439209 L 6.607009410858154 12.38177967071533 M 6.607009410858154 13.0806999206543 L 3.40999960899353 9.95818042755127 L 4.222119808197021 9.170570373535156 L 6.607009410858154 11.49989032745361 L 12.66359996795654 5.590000152587891 L 13.46999931335449 6.377610206604004 L 6.607009410858154 13.0806999206543 Z"/></g></g></g></svg>