<svg xmlns="http://www.w3.org/2000/svg" width="40" height="40" viewBox="0 0 40 40"><defs><style>.a{fill:none;}.b{fill:#333;}</style></defs><g transform="translate(-0.06)"><path class="a" d="M.06,0h40V40H.06Z" transform="translate(0)"/><path class="b" d="M20.06,38a3.833,3.833,0,0,0,4-3.641h-8A3.833,3.833,0,0,0,20.06,38Zm12-10.923v-9.1c0-5.589-3.26-10.268-9-11.506V5.231a2.875,2.875,0,0,0-3-2.731,2.875,2.875,0,0,0-3,2.731V6.469c-5.72,1.238-9,5.9-9,11.506v9.1l-4,3.641v1.821h32V30.718Zm-4,1.821h-16V17.974c0-4.515,3.02-8.192,8-8.192s8,3.641,8,8.192Z" transform="translate(0 0)"/></g></svg>