<svg xmlns="http://www.w3.org/2000/svg" width="17.111" height="17.641" viewBox="0 0 17.111 17.641"><defs><style>.a{opacity:0;}.b{fill:rgba(0,0,0,0.54);}.c{fill:#737373;}.d{fill:#fafafa;}</style></defs><g class="a"><path class="b" d="M17.04.073v17.5H.071V.073H17.04M17.111,0H0V17.641H17.111Z"/></g><g transform="translate(4.069 0.678)"><g transform="translate(0)"><path class="c" d="M.539,11.013V3.5a.213.213,0,0,1,.05-.007A.714.714,0,0,1,0,2.768V.728A.7.7,0,0,1,.676,0H4.728A.7.7,0,0,1,5.4.728v2.04a.71.71,0,0,1-.641.731h.1V11.01A2.322,2.322,0,0,1,2.7,13.462,2.326,2.326,0,0,1,.539,11.013Z"/><path class="d" d="M0,0H2.713a0,0,0,0,1,0,0V6.782A1.356,1.356,0,0,1,1.356,8.138h0A1.356,1.356,0,0,1,0,6.782V0A0,0,0,0,1,0,0Z" transform="translate(1.356 4.29)"/></g><g transform="translate(2.713 2.034)"><path class="c" d="M.539,11.013V3.5a.213.213,0,0,1,.05-.007A.714.714,0,0,1,0,2.768V.728A.7.7,0,0,1,.676,0H4.728A.7.7,0,0,1,5.4.728v2.04a.71.71,0,0,1-.641.731h.1V11.01A2.322,2.322,0,0,1,2.7,13.462,2.326,2.326,0,0,1,.539,11.013Z" transform="translate(0)"/><path class="d" d="M0,0H2.713a0,0,0,0,1,0,0V6.782A1.356,1.356,0,0,1,1.356,8.138h0A1.356,1.356,0,0,1,0,6.782V0A0,0,0,0,1,0,0Z" transform="translate(1.356 4.29)"/></g><g transform="translate(5.425 3.391)"><path class="c" d="M.539,11.013V3.5a.213.213,0,0,1,.05-.007A.714.714,0,0,1,0,2.768V.728A.7.7,0,0,1,.676,0H4.728A.7.7,0,0,1,5.4.728v2.04a.71.71,0,0,1-.641.731h.1V11.01A2.322,2.322,0,0,1,2.7,13.462,2.326,2.326,0,0,1,.539,11.013Z" transform="translate(0)"/><path class="d" d="M0,0H2.713a0,0,0,0,1,0,0V6.782A1.356,1.356,0,0,1,1.356,8.138h0A1.356,1.356,0,0,1,0,6.782V0A0,0,0,0,1,0,0Z" transform="translate(1.356 4.29)"/></g></g></svg>