<svg xmlns="http://www.w3.org/2000/svg" xmlns:xlink="http://www.w3.org/1999/xlink" width="18" height="18" viewBox="0 0 18 18"><defs><style>.a{fill:none;}.b{clip-path:url(#a);}.c,.f{fill:#fff;}.d{fill:#333;}.e,.f{stroke:none;}</style><clipPath id="a"><rect class="a" width="18" height="18"/></clipPath></defs><g class="b"><g class="c"><path class="e" d="M 9 17.5 C 4.313079833984375 17.5 0.5 13.68692016601562 0.5 9 C 0.5 4.313079833984375 4.313079833984375 0.5 9 0.5 C 13.68692016601562 0.5 17.5 4.313079833984375 17.5 9 C 17.5 13.68692016601562 13.68692016601562 17.5 9 17.5 Z"/><path class="f" d="M 9 1 C 4.588789939880371 1 1 4.588789939880371 1 9 C 1 13.41121006011963 4.588789939880371 17 9 17 C 13.41121006011963 17 17 13.41121006011963 17 9 C 17 4.588789939880371 13.41121006011963 1 9 1 M 9 0 C 13.97056007385254 0 18 4.029439926147461 18 9 C 18 13.97056007385254 13.97056007385254 18 9 18 C 4.029439926147461 18 0 13.97056007385254 0 9 C 0 4.029439926147461 4.029439926147461 0 9 0 Z"/></g><g transform="translate(-1 -1)"><path class="d" d="M3,10a5.841,5.841,0,0,0,1.836,4.23L3,16H7.667V11.5L5.924,13.18A4.424,4.424,0,0,1,4.556,10,4.507,4.507,0,0,1,7.667,5.762V4.2A6.04,6.04,0,0,0,3,10Zm6.222,3.75h1.556v-1.5H9.222ZM17,4H12.333V8.5l1.742-1.68A4.424,4.424,0,0,1,15.444,10a4.507,4.507,0,0,1-3.111,4.237v1.568A6.04,6.04,0,0,0,17,10a5.841,5.841,0,0,0-1.836-4.23ZM9.222,10.75h1.556V6.25H9.222Z" transform="translate(0)"/></g></g></svg>