<svg xmlns="http://www.w3.org/2000/svg" width="40" height="40" viewBox="0 0 40 40"><defs><style>.a{fill:none;}.b{fill:#737373;}</style></defs><path class="a" d="M0,0H40V40H0Z"/><path class="b" d="M24.667,20a3.668,3.668,0,0,0-3.524-3.778A3.668,3.668,0,0,0,17.619,20a3.668,3.668,0,0,0,3.524,3.778A3.668,3.668,0,0,0,24.667,20ZM21.143,3C12.386,3,5.286,10.612,5.286,20H0l7.048,7.556L14.1,20H8.81c0-7.31,5.515-13.222,12.333-13.222S33.476,12.69,33.476,20,27.961,33.222,21.143,33.222a11.843,11.843,0,0,1-7.153-2.456l-2.5,2.72A15.2,15.2,0,0,0,21.143,37C29.9,37,37,29.388,37,20S29.9,3,21.143,3Z" transform="translate(0 0)"/></svg>